{"title":"The.Yellow.Handkerchief.2008.HDTV.XviD.MP3-RARBG","uid":13537285,"size":937877603,"categoryP":"video","categoryS":"movies","magnet":"?xt=urn:btih:83af82d22698576e11bc6ae277da1f2b8c58c046&amp;dn=The.Yellow.Handkerchief.2008.HDTV.XviD.MP3-RARBG&amp;tr=udp%3A%2F%2Ftracker.leechers-paradise.org%3A6969&amp;tr=udp%3A%2F%2Fzer0day.ch%3A1337&amp;tr=udp%3A%2F%2Fopen.demonii.com%3A1337&amp;tr=udp%3A%2F%2Ftracker.coppersurfer.tk%3A6969&amp;tr=udp%3A%2F%2Fexodus.desync.com%3A6969","seeders":0,"leechers":1,"uploader":null,"files":5,"time":1455447749,"description":"Video\r\nID                                       : 0\r\nFormat                                   : MPEG-4 Visual\r\nFormat profile                           :   \r\nFormat settings, BVOP                    : No\r\nFormat settings, QPel                    : No\r\nFormat settings, GMC                     : No warppoints\r\nFormat settings, Matrix                  : Default (H.263)\r\nCodec ID                                 : XVID\r\nCodec ID/Hint                            : XviD\r\nDuration                                 : 1h 35mn\r\nBit rate                                 : 1 100 Kbps\r\nWidth                                    : 720 pixels\r\nHeight                                   : 308 pixels\r\nDisplay aspect ratio                     : 2.35:1\r\nOriginal display aspect ratio            : 2.35:1\r\nFrame rate                               : 23.976 fps\r\nColor space                              : YUV\r\nChroma subsampling                       : 4:2:0\r\nBit depth                                : 8 bits\r\nScan type                                : Progressive\r\nCompression mode                         : Lossy\r\nBits/(Pixel*Frame)                       : 0.207\r\nStream size                              : 753 MiB (84%)\r\nTitle                                    : RARBG.COM - The.#FF0000.Handkerchief.2008.HDTV.XviD.MP3-RARBG\r\nWriting library                          : Lavc56.60.100\r\n\r\nAudio\r\nID                                       : 1\r\nFormat                                   : MPEG Audio\r\nFormat version                           : Version 1\r\nFormat profile                           : Layer 3\r\nMode                                     : Joint stereo\r\nCodec ID                                 : 55\r\nCodec ID/Hint                            : MP3\r\nDuration                                 : 1h 35mn\r\nBit rate mode                            : Constant\r\nBit rate                                 : 192 Kbps\r\nChannel(s)                               : 2 channels\r\nSampling rate                            : 48.0 KHz\r\nCompression mode                         : Lossy\r\nStream size                              : 131 MiB (15%)\r\nAlignment                                : Aligned on interleaves\r\nInterleave, duration                     : 24 ms (0.58 video frame)\r\nInterleave, preload duration             : 24 ms\r\nTitle                                    : RARBG.COM - The.#FF0000.Handkerchief.2008.HDTV.XviD.MP3-RARBG\r\nWriting library                          : LAME3.99.5\u0010","torrent":{"xt":"urn:btih:83af82d22698576e11bc6ae277da1f2b8c58c046","amp;dn":"The.Yellow.Handkerchief.2008.HDTV.XviD.MP3-RARBG","amp;tr":["udp%3A%2F%2Ftracker.leechers-paradise.org%3A6969","udp%3A%2F%2Fzer0day.ch%3A1337","udp%3A%2F%2Fopen.demonii.com%3A1337","udp%3A%2F%2Ftracker.coppersurfer.tk%3A6969","udp%3A%2F%2Fexodus.desync.com%3A6969"],"infoHash":"83af82d22698576e11bc6ae277da1f2b8c58c046","infoHashBuffer":{"type":"Buffer","data":[131,175,130,210,38,152,87,110,17,188,106,226,119,218,31,43,140,88,192,70]},"announce":[],"urlList":[]}}